inDegrees=no
num_controls=7
num_derivatives=13
num_iterations=123
num_multipliers=7
num_parameters=0
num_slacks=7
num_states=26
objective=0.548106
objective_accelerations=0.039755
objective_balance=0.003378
objective_effort=0.037882
objective_height=0.457525
objective_ligament=0.009565
solver_duration=1283.905603
status=Solve_Succeeded
success=true
DataType=double
version=3
OpenSimVersion=4.5
endheader
time	/jointset/ground_pelvis/pelvis_tilt/value	/jointset/ground_pelvis/pelvis_tx/value	/jointset/ground_pelvis/pelvis_ty/value	/jointset/hip_r/hip_flexion_r/value	/jointset/hip_r/hip_adduction_r/value	/jointset/hip_r/hip_rotation_r/value	/jointset/back/lumbar_extension/value	/jointset/patellofemoral_r/patellar_flexion_r/value	/jointset/knee_r/knee_flexion_r/value	/jointset/knee_r/knee_adduction_r/value	/jointset/knee_r/knee_rotation_r/value	/jointset/ankle_r/ankle_angle_r/value	/jointset/subtalar_r/subtalar_angle_r/value	/jointset/ground_pelvis/pelvis_tilt/speed	/jointset/ground_pelvis/pelvis_tx/speed	/jointset/ground_pelvis/pelvis_ty/speed	/jointset/hip_r/hip_flexion_r/speed	/jointset/hip_r/hip_adduction_r/speed	/jointset/hip_r/hip_rotation_r/speed	/jointset/back/lumbar_extension/speed	/jointset/patellofemoral_r/patellar_flexion_r/speed	/jointset/knee_r/knee_flexion_r/speed	/jointset/knee_r/knee_adduction_r/speed	/jointset/knee_r/knee_rotation_r/speed	/jointset/ankle_r/ankle_angle_r/speed	/jointset/subtalar_r/subtalar_angle_r/speed	/forceset/tau_hip_flexion_r	/forceset/tau_hip_adduction_r	/forceset/tau_hip_rotation_r	/forceset/tau_knee_flexion_r	/forceset/tau_ankle_angle_r	/forceset/tau_subtalar_angle_r	/forceset/tau_lumbar_extension	lambda_cid13_p0	lambda_cid14_p0	lambda_cid14_p1	lambda_cid14_p2	lambda_cid14_p3	lambda_cid14_p4	lambda_cid14_p5	/jointset/ground_pelvis/pelvis_tilt/accel	/jointset/ground_pelvis/pelvis_tx/accel	/jointset/ground_pelvis/pelvis_ty/accel	/jointset/hip_r/hip_flexion_r/accel	/jointset/hip_r/hip_adduction_r/accel	/jointset/hip_r/hip_rotation_r/accel	/jointset/back/lumbar_extension/accel	/jointset/patellofemoral_r/patellar_flexion_r/accel	/jointset/knee_r/knee_flexion_r/accel	/jointset/knee_r/knee_adduction_r/accel	/jointset/knee_r/knee_rotation_r/accel	/jointset/ankle_r/ankle_angle_r/accel	/jointset/subtalar_r/subtalar_angle_r/accel	gamma_cid13_p0	gamma_cid14_p0	gamma_cid14_p1	gamma_cid14_p2	gamma_cid14_p3	gamma_cid14_p4	gamma_cid14_p5
1	-0.3058476319691222	-0.01176510920644697	0.7261405875629551	1.307060746920444	-0.2321150964941427	-0.06740248929181483	-0.4363315144543061	1.154603377121055	1.154603377121024	-0.02939875585240921	0.1745300508643595	0.3437248111755276	0.07741136526378579	-0.000741764605797345	0.003107013262648453	0.01323423107653343	-0.03634254783159301	0.00159540554988853	-0.009868648081473483	-0.0001250549817661032	-0.04671289040529937	-0.04671289040530018	0.0009567397159882633	-1.254847236790917e-05	-0.01099161167758673	-0.001042992236474078	-0.2778002454343082	0.01635947508084587	0.01280330309797634	-0.4158173998688053	0.01767439262644219	0.002868076377886953	0.2927040433555064	-3.232001406790925	-42.23101058411743	-5.50805793595188	0.6062920983992763	17.33686323602849	-776.9862666236969	56.13150746763858	1.401530079309233	0.0975819523120758	1.349403084328161	-4.668589850739665	0.08872097780320237	-0.6824726353038644	-0.02429947660402502	-4.360592536434193	-4.360592536434359	0.4088308234141024	0.005096452125610636	-1.262325466212158	-0.2693018028942229	7.098352907550494e-10	-2.473876339619967e-10	5.91934833352354e-09	7.001811981229047e-09	2.0892784221998e-09	-2.591192840828138e-09	5.168261144325116e-09
1.01	-0.3057858907057631	-0.01172905329867512	0.7263402432145564	1.306464897059007	-0.2320947092034715	-0.06753471050449944	-0.436332253583709	1.153918472830055	1.153918472830029	-0.02936828525117469	0.1745298992801856	0.3435519396731173	0.07738750811868039	0.01306413365305031	0.004117681045157946	0.02669423128527432	-0.08281696488502432	0.002481076903140834	-0.01657216495277909	7.479921797953241e-05	-0.09026941291583795	-0.09026941291584099	0.005143327727954206	-1.826259534687837e-05	-0.02356851900411205	-0.003724991165620226	-0.2782557701614009	0.01643396770903345	0.01280744685190923	-0.4154711936587583	0.01762483692272494	0.002853205887970749	0.2932210452661791	-3.260087069475763	-42.25172988652519	-5.515757906844792	0.6047942092957306	17.16564026221449	-777.2046764594669	56.08459695856257	1.366237758772763	0.1048369065577873	1.343897144898619	-4.635298244069531	0.08834642491647575	-0.663776553288638	0.05676338735763951	-4.35339911620428	-4.353399116204515	0.4244663454094481	-0.003476618802896191	-1.25324858416628	-0.2671287513350276	1.193565111613222e-09	-8.323650522155731e-10	1.147746074395576e-08	1.241061551381572e-08	3.992384693681011e-09	-5.720791954270726e-09	9.629491608094021e-09
1.02	-0.3055868668478953	-0.01168248517001071	0.7266744185993954	1.305404616904753	-0.2320654939571018	-0.06773386395394441	-0.4363280670673928	1.15279795991238	1.152797959912359	-0.02929577005875536	0.1745296762999239	0.343253724053783	0.07733693502160148	0.02671475429590736	0.005209457441159316	0.04013817772408113	-0.1292286063954431	0.003360996689600753	-0.02325509543387343	0.0008600741814770753	-0.1338346157400003	-0.1338346157400049	0.009365657952783785	-2.682769005550879e-05	-0.0360604350623798	-0.006386182631174958	-0.2787112948884876	0.01650846033722588	0.01281159060582148	-0.4151249874487115	0.01757528121900874	0.002838335398062459	0.2937380471768574	-3.306330431082785	-42.2823804890315	-5.521602245836903	0.5988946529507039	17.01656785254566	-777.5755576330748	56.05634158287003	1.370474556111114	0.1138036750104515	1.346192330341347	-4.656034742137158	0.0875706644447246	-0.6783553572616096	0.09278467614639836	-4.362328599158953	-4.362328599158969	0.4159792659868321	0.004526257779679996	-1.245327212560643	-0.2651403101759414	1.635866919999116e-09	-1.137607183476366e-09	1.721158941890673e-08	1.786193172060454e-08	5.297769257939655e-09	-8.517691035505081e-09	1.416265042764376e-08
1.03	-0.3052522741303198	-0.01162446883934193	0.7271429289234731	1.303880562978678	-0.2320275296674057	-0.06799971234460299	-0.4363122600139966	1.151241763426913	1.151241763426899	-0.02918078564548661	0.1745293638710741	0.342831157201185	0.07725987299113252	0.04016038232593664	0.006419953410274642	0.05355863075254707	-0.1755674451367294	0.004228715786402579	-0.02990763330949158	0.002485268417586097	-0.1774049424088879	-0.1774049424088925	0.01364432400269236	-3.526416038034036e-05	-0.04842447649819989	-0.009020954798892991	-0.2795338928089409	0.01659420832186408	0.01282264802097653	-0.4144572966925476	0.01746957265094495	0.002842857921781046	0.294698709021618	-3.371082377352405	-42.32774263370565	-5.515920750476558	0.5846704091446275	16.72532043234763	-778.0349260462118	56.0174969099524	1.325096945394054	0.1285955927982776	1.339181059097361	-4.620597621112694	0.08590562261031058	-0.6576603018856549	0.2249765851361998	-4.354424277288182	-4.354424277288188	0.4357781597949841	-0.003464091967498971	-1.227675079781893	-0.2618488555750817	2.077745993563864e-09	-1.439994873033149e-09	2.294751417818952e-08	2.331368173019135e-08	6.597054621104187e-09	-1.13111952184516e-08	1.86965432100076e-08
1.04	-0.3047845271286548	-0.01155356294199479	0.7277454856318349	1.301893562828993	-0.2319809815686793	-0.06833187757385105	-0.4362746830606734	1.149249855759449	1.149249855759444	-0.0290226209946575	0.1745289799790156	0.3422858034400911	0.07715662260188527	0.05334561111377447	0.007787370776833499	0.06694745458094155	-0.22181785111755	0.005077758495699074	-0.0365184631520588	0.005214054165417223	-0.2209768521391564	-0.220976852139161	0.01800170546468486	-4.11203318623348e-05	-0.06061781676158803	-0.01162385438682485	-0.2803564907293956	0.01667995630650583	0.01283370543610952	-0.4137896059363844	0.01736386408288264	0.002847380445505804	0.2956593708663771	-3.454850646377131	-42.38302524735437	-5.508305747727467	0.5659452967465805	16.45422466024042	-778.6480620267754	55.99763010113147	1.318394707672823	0.1451879544991572	1.339866490327053	-4.638348190044022	0.08383538694365718	-0.6700137506514198	0.3135029784907937	-4.362645211435122	-4.362645211435122	0.4317223484036197	0.005042317548249413	-1.211186978074259	-0.2587657942187094	2.624185527630113e-09	-6.476861758090129e-10	2.835973134617221e-08	2.919778098062419e-08	5.864347037555133e-09	-1.365505632959388e-08	2.375960399633711e-08
